<mxfile host="Electron" modified="2023-08-13T14:19:14.918Z" agent="Mozilla/5.0 (Windows NT 10.0; Win64; x64) AppleWebKit/537.36 (KHTML, like Gecko) draw.io/21.6.8 Chrome/114.0.5735.289 Electron/25.5.0 Safari/537.36" etag="5XbyPWifFP_BWwA30epZ" version="21.6.8" type="device" pages="5">
  <diagram name="14.42" id="09podm176gvgKnz33cnT">
    <mxGraphModel dx="880" dy="511" grid="1" gridSize="10" guides="1" tooltips="1" connect="1" arrows="1" fold="1" page="1" pageScale="1" pageWidth="827" pageHeight="1169" math="0" shadow="0">
      <root>
        <mxCell id="0" />
        <mxCell id="1" parent="0" />
        <mxCell id="hiF4N3FOotqtx-M1zbVR-3" style="edgeStyle=orthogonalEdgeStyle;rounded=0;orthogonalLoop=1;jettySize=auto;html=1;exitX=1;exitY=0.5;exitDx=0;exitDy=0;entryX=0;entryY=0.5;entryDx=0;entryDy=0;endSize=12;endArrow=openThin;endFill=0;" edge="1" parent="1" source="hiF4N3FOotqtx-M1zbVR-1" target="hiF4N3FOotqtx-M1zbVR-2">
          <mxGeometry relative="1" as="geometry" />
        </mxCell>
        <mxCell id="hiF4N3FOotqtx-M1zbVR-4" value="[C1] m1/ [C2]" style="edgeLabel;html=1;align=center;verticalAlign=middle;resizable=0;points=[];fontSize=11;fontFamily=Helvetica;fontColor=default;" vertex="1" connectable="0" parent="hiF4N3FOotqtx-M1zbVR-3">
          <mxGeometry x="-0.3375" y="1" relative="1" as="geometry">
            <mxPoint x="20" y="-10" as="offset" />
          </mxGeometry>
        </mxCell>
        <mxCell id="hiF4N3FOotqtx-M1zbVR-1" value="S1" style="html=1;align=center;verticalAlign=middle;rounded=1;absoluteArcSize=1;arcSize=10;dashed=0;whiteSpace=wrap;" vertex="1" parent="1">
          <mxGeometry width="80" height="40" as="geometry" />
        </mxCell>
        <mxCell id="hiF4N3FOotqtx-M1zbVR-2" value="S2" style="html=1;align=center;verticalAlign=middle;rounded=1;absoluteArcSize=1;arcSize=10;dashed=0;whiteSpace=wrap;" vertex="1" parent="1">
          <mxGeometry x="240" width="80" height="40" as="geometry" />
        </mxCell>
        <mxCell id="hiF4N3FOotqtx-M1zbVR-5" value="&lt;b&gt;Figure 14.42 An example of a ProtocolTransition associated with the operation &quot;m1&quot;&lt;/b&gt;" style="text;html=1;align=left;verticalAlign=middle;resizable=0;points=[];autosize=1;strokeColor=none;fillColor=none;fontSize=11;fontFamily=Helvetica;fontColor=default;" vertex="1" parent="1">
          <mxGeometry y="40" width="460" height="30" as="geometry" />
        </mxCell>
      </root>
    </mxGraphModel>
  </diagram>
  <diagram id="EHGIgPNsuK0VuKDYcWLP" name="14.43">
    <mxGraphModel dx="880" dy="511" grid="1" gridSize="10" guides="1" tooltips="1" connect="1" arrows="1" fold="1" page="1" pageScale="1" pageWidth="827" pageHeight="1169" math="0" shadow="0">
      <root>
        <mxCell id="0" />
        <mxCell id="1" parent="0" />
        <mxCell id="cvop5RUDhCdi9hHobLEB-1" style="edgeStyle=orthogonalEdgeStyle;rounded=0;orthogonalLoop=1;jettySize=auto;html=1;exitX=1;exitY=0.5;exitDx=0;exitDy=0;entryX=0;entryY=0.5;entryDx=0;entryDy=0;endSize=12;endArrow=openThin;endFill=0;" edge="1" parent="1" source="cvop5RUDhCdi9hHobLEB-3" target="cvop5RUDhCdi9hHobLEB-4">
          <mxGeometry relative="1" as="geometry" />
        </mxCell>
        <mxCell id="cvop5RUDhCdi9hHobLEB-2" value="[C1] m1/ [C2]" style="edgeLabel;html=1;align=center;verticalAlign=middle;resizable=0;points=[];fontSize=11;fontFamily=Helvetica;fontColor=default;" vertex="1" connectable="0" parent="cvop5RUDhCdi9hHobLEB-1">
          <mxGeometry x="-0.3375" y="1" relative="1" as="geometry">
            <mxPoint x="20" y="-10" as="offset" />
          </mxGeometry>
        </mxCell>
        <mxCell id="cvop5RUDhCdi9hHobLEB-3" value="S1" style="html=1;align=center;verticalAlign=middle;rounded=1;absoluteArcSize=1;arcSize=10;dashed=0;whiteSpace=wrap;" vertex="1" parent="1">
          <mxGeometry width="80" height="40" as="geometry" />
        </mxCell>
        <mxCell id="cvop5RUDhCdi9hHobLEB-4" value="S2" style="html=1;align=center;verticalAlign=middle;rounded=1;absoluteArcSize=1;arcSize=10;dashed=0;whiteSpace=wrap;" vertex="1" parent="1">
          <mxGeometry x="240" width="80" height="40" as="geometry" />
        </mxCell>
        <mxCell id="cvop5RUDhCdi9hHobLEB-5" value="&lt;b&gt;Figure 14.43 Example of several ProtocolTransitions associated with the same operation (m1)&lt;/b&gt;" style="text;html=1;align=left;verticalAlign=middle;resizable=0;points=[];autosize=1;strokeColor=none;fillColor=none;fontSize=11;fontFamily=Helvetica;fontColor=default;" vertex="1" parent="1">
          <mxGeometry y="120" width="510" height="30" as="geometry" />
        </mxCell>
        <mxCell id="cvop5RUDhCdi9hHobLEB-6" style="edgeStyle=orthogonalEdgeStyle;rounded=0;orthogonalLoop=1;jettySize=auto;html=1;exitX=1;exitY=0.5;exitDx=0;exitDy=0;entryX=0;entryY=0.5;entryDx=0;entryDy=0;endSize=12;endArrow=openThin;endFill=0;" edge="1" source="cvop5RUDhCdi9hHobLEB-8" target="cvop5RUDhCdi9hHobLEB-9" parent="1">
          <mxGeometry relative="1" as="geometry" />
        </mxCell>
        <mxCell id="cvop5RUDhCdi9hHobLEB-7" value="[C3] m1/ [C4]" style="edgeLabel;html=1;align=center;verticalAlign=middle;resizable=0;points=[];fontSize=11;fontFamily=Helvetica;fontColor=default;" vertex="1" connectable="0" parent="cvop5RUDhCdi9hHobLEB-6">
          <mxGeometry x="-0.3375" y="1" relative="1" as="geometry">
            <mxPoint x="20" y="-10" as="offset" />
          </mxGeometry>
        </mxCell>
        <mxCell id="cvop5RUDhCdi9hHobLEB-8" value="S3" style="html=1;align=center;verticalAlign=middle;rounded=1;absoluteArcSize=1;arcSize=10;dashed=0;whiteSpace=wrap;" vertex="1" parent="1">
          <mxGeometry y="80" width="80" height="40" as="geometry" />
        </mxCell>
        <mxCell id="cvop5RUDhCdi9hHobLEB-9" value="S4" style="html=1;align=center;verticalAlign=middle;rounded=1;absoluteArcSize=1;arcSize=10;dashed=0;whiteSpace=wrap;" vertex="1" parent="1">
          <mxGeometry x="240" y="80" width="80" height="40" as="geometry" />
        </mxCell>
      </root>
    </mxGraphModel>
  </diagram>
  <diagram id="nNBveBStIK8WkPGLu0y9" name="14.44">
    <mxGraphModel dx="880" dy="511" grid="1" gridSize="10" guides="1" tooltips="1" connect="1" arrows="1" fold="1" page="1" pageScale="1" pageWidth="827" pageHeight="1169" math="0" shadow="0">
      <root>
        <mxCell id="0" />
        <mxCell id="1" parent="0" />
        <mxCell id="tKDRxyoLMQhiz-tZ7HxH-1" value="Door «protocol»" style="shape=umlFrame;whiteSpace=wrap;html=1;pointerEvents=0;recursiveResize=0;container=1;collapsible=0;width=110;fontFamily=Helvetica;fontSize=11;fontColor=default;height=30;" vertex="1" parent="1">
          <mxGeometry x="10" y="10" width="400" height="290" as="geometry" />
        </mxCell>
        <mxCell id="tKDRxyoLMQhiz-tZ7HxH-4" style="edgeStyle=orthogonalEdgeStyle;shape=connector;rounded=0;orthogonalLoop=1;jettySize=auto;html=1;entryX=0.5;entryY=0;entryDx=0;entryDy=0;labelBackgroundColor=default;strokeColor=default;fontFamily=Helvetica;fontSize=11;fontColor=default;endArrow=openThin;endFill=0;endSize=12;" edge="1" parent="tKDRxyoLMQhiz-tZ7HxH-1" source="tKDRxyoLMQhiz-tZ7HxH-2" target="tKDRxyoLMQhiz-tZ7HxH-3">
          <mxGeometry relative="1" as="geometry" />
        </mxCell>
        <mxCell id="tKDRxyoLMQhiz-tZ7HxH-2" value="" style="ellipse;fillColor=strokeColor;html=1;fontFamily=Helvetica;fontSize=11;fontColor=default;" vertex="1" parent="tKDRxyoLMQhiz-tZ7HxH-1">
          <mxGeometry x="50" y="40" width="30" height="30" as="geometry" />
        </mxCell>
        <mxCell id="tKDRxyoLMQhiz-tZ7HxH-11" style="edgeStyle=orthogonalEdgeStyle;shape=connector;rounded=0;orthogonalLoop=1;jettySize=auto;html=1;exitX=1;exitY=0.75;exitDx=0;exitDy=0;entryX=0;entryY=0.75;entryDx=0;entryDy=0;labelBackgroundColor=default;strokeColor=default;fontFamily=Helvetica;fontSize=11;fontColor=default;endArrow=openThin;endFill=0;endSize=12;" edge="1" parent="tKDRxyoLMQhiz-tZ7HxH-1" source="tKDRxyoLMQhiz-tZ7HxH-3" target="tKDRxyoLMQhiz-tZ7HxH-7">
          <mxGeometry relative="1" as="geometry" />
        </mxCell>
        <mxCell id="tKDRxyoLMQhiz-tZ7HxH-12" value="[doorway-&amp;gt;isEmpty()] close/" style="edgeLabel;html=1;align=center;verticalAlign=middle;resizable=0;points=[];fontSize=11;fontFamily=Helvetica;fontColor=default;" vertex="1" connectable="0" parent="tKDRxyoLMQhiz-tZ7HxH-11">
          <mxGeometry x="-0.625" relative="1" as="geometry">
            <mxPoint x="48" y="16" as="offset" />
          </mxGeometry>
        </mxCell>
        <mxCell id="tKDRxyoLMQhiz-tZ7HxH-3" value="&lt;b&gt;opened&lt;/b&gt;" style="html=1;align=center;verticalAlign=middle;rounded=1;absoluteArcSize=1;arcSize=10;dashed=0;whiteSpace=wrap;fontFamily=Helvetica;fontSize=11;fontColor=default;" vertex="1" parent="tKDRxyoLMQhiz-tZ7HxH-1">
          <mxGeometry x="20" y="110" width="90" height="40" as="geometry" />
        </mxCell>
        <mxCell id="tKDRxyoLMQhiz-tZ7HxH-9" style="edgeStyle=orthogonalEdgeStyle;shape=connector;rounded=0;orthogonalLoop=1;jettySize=auto;html=1;exitX=0;exitY=0.25;exitDx=0;exitDy=0;entryX=1;entryY=0.25;entryDx=0;entryDy=0;labelBackgroundColor=default;strokeColor=default;fontFamily=Helvetica;fontSize=11;fontColor=default;endArrow=openThin;endFill=0;endSize=12;" edge="1" parent="tKDRxyoLMQhiz-tZ7HxH-1" source="tKDRxyoLMQhiz-tZ7HxH-7" target="tKDRxyoLMQhiz-tZ7HxH-3">
          <mxGeometry relative="1" as="geometry" />
        </mxCell>
        <mxCell id="tKDRxyoLMQhiz-tZ7HxH-10" value="open/" style="edgeLabel;html=1;align=center;verticalAlign=middle;resizable=0;points=[];fontSize=11;fontFamily=Helvetica;fontColor=default;" vertex="1" connectable="0" parent="tKDRxyoLMQhiz-tZ7HxH-9">
          <mxGeometry x="-0.025" y="-1" relative="1" as="geometry">
            <mxPoint y="-17" as="offset" />
          </mxGeometry>
        </mxCell>
        <mxCell id="tKDRxyoLMQhiz-tZ7HxH-13" style="edgeStyle=orthogonalEdgeStyle;shape=connector;rounded=0;orthogonalLoop=1;jettySize=auto;html=1;exitX=0.25;exitY=1;exitDx=0;exitDy=0;entryX=0.25;entryY=0;entryDx=0;entryDy=0;labelBackgroundColor=default;strokeColor=default;fontFamily=Helvetica;fontSize=11;fontColor=default;endArrow=openThin;endFill=0;endSize=12;" edge="1" parent="tKDRxyoLMQhiz-tZ7HxH-1" source="tKDRxyoLMQhiz-tZ7HxH-7" target="tKDRxyoLMQhiz-tZ7HxH-8">
          <mxGeometry relative="1" as="geometry" />
        </mxCell>
        <mxCell id="tKDRxyoLMQhiz-tZ7HxH-14" value="lock/" style="edgeLabel;html=1;align=center;verticalAlign=middle;resizable=0;points=[];fontSize=11;fontFamily=Helvetica;fontColor=default;" vertex="1" connectable="0" parent="tKDRxyoLMQhiz-tZ7HxH-13">
          <mxGeometry x="0.075" y="-2" relative="1" as="geometry">
            <mxPoint x="-18" as="offset" />
          </mxGeometry>
        </mxCell>
        <mxCell id="tKDRxyoLMQhiz-tZ7HxH-7" value="&lt;b&gt;closed&lt;/b&gt;" style="html=1;align=center;verticalAlign=middle;rounded=1;absoluteArcSize=1;arcSize=10;dashed=0;whiteSpace=wrap;fontFamily=Helvetica;fontSize=11;fontColor=default;" vertex="1" parent="tKDRxyoLMQhiz-tZ7HxH-1">
          <mxGeometry x="270" y="110" width="90" height="40" as="geometry" />
        </mxCell>
        <mxCell id="tKDRxyoLMQhiz-tZ7HxH-15" style="edgeStyle=orthogonalEdgeStyle;shape=connector;rounded=0;orthogonalLoop=1;jettySize=auto;html=1;exitX=0.75;exitY=0;exitDx=0;exitDy=0;entryX=0.75;entryY=1;entryDx=0;entryDy=0;labelBackgroundColor=default;strokeColor=default;fontFamily=Helvetica;fontSize=11;fontColor=default;endArrow=openThin;endFill=0;endSize=12;" edge="1" parent="tKDRxyoLMQhiz-tZ7HxH-1" source="tKDRxyoLMQhiz-tZ7HxH-8" target="tKDRxyoLMQhiz-tZ7HxH-7">
          <mxGeometry relative="1" as="geometry" />
        </mxCell>
        <mxCell id="tKDRxyoLMQhiz-tZ7HxH-16" value="unlock/" style="edgeLabel;html=1;align=center;verticalAlign=middle;resizable=0;points=[];fontSize=11;fontFamily=Helvetica;fontColor=default;" vertex="1" connectable="0" parent="tKDRxyoLMQhiz-tZ7HxH-15">
          <mxGeometry y="-1" relative="1" as="geometry">
            <mxPoint x="25" y="3" as="offset" />
          </mxGeometry>
        </mxCell>
        <mxCell id="tKDRxyoLMQhiz-tZ7HxH-8" value="&lt;b&gt;lock&lt;/b&gt;" style="html=1;align=center;verticalAlign=middle;rounded=1;absoluteArcSize=1;arcSize=10;dashed=0;whiteSpace=wrap;fontFamily=Helvetica;fontSize=11;fontColor=default;" vertex="1" parent="tKDRxyoLMQhiz-tZ7HxH-1">
          <mxGeometry x="270" y="230" width="90" height="40" as="geometry" />
        </mxCell>
        <mxCell id="tKDRxyoLMQhiz-tZ7HxH-17" value="&lt;b&gt;Figure 14.44 ProtocolStateMachine example&lt;/b&gt;" style="text;html=1;align=left;verticalAlign=middle;resizable=0;points=[];autosize=1;strokeColor=none;fillColor=none;fontSize=11;fontFamily=Helvetica;fontColor=default;" vertex="1" parent="1">
          <mxGeometry x="10" y="300" width="250" height="30" as="geometry" />
        </mxCell>
      </root>
    </mxGraphModel>
  </diagram>
  <diagram id="liCAoPchMNDzYRd8Ex94" name="14.45">
    <mxGraphModel dx="880" dy="511" grid="1" gridSize="10" guides="1" tooltips="1" connect="1" arrows="1" fold="1" page="1" pageScale="1" pageWidth="827" pageHeight="1169" math="0" shadow="0">
      <root>
        <mxCell id="0" />
        <mxCell id="1" parent="0" />
        <mxCell id="2prPYzDjO0W1UaubK8aK-1" value="TypingPassword&lt;br&gt;[invariant expr]" style="html=1;align=center;verticalAlign=top;rounded=1;absoluteArcSize=1;arcSize=10;dashed=0;whiteSpace=wrap;strokeColor=default;fontFamily=Helvetica;fontSize=11;fontColor=default;fillColor=default;" vertex="1" parent="1">
          <mxGeometry width="100" height="40" as="geometry" />
        </mxCell>
        <mxCell id="2prPYzDjO0W1UaubK8aK-2" value="&lt;b&gt;Figure 14.45 Notation for a State with an invariant&lt;/b&gt;" style="text;html=1;align=left;verticalAlign=middle;resizable=0;points=[];autosize=1;strokeColor=none;fillColor=none;fontSize=11;fontFamily=Helvetica;fontColor=default;" vertex="1" parent="1">
          <mxGeometry y="40" width="280" height="30" as="geometry" />
        </mxCell>
      </root>
    </mxGraphModel>
  </diagram>
  <diagram id="5lHHVr6p42LcsKfLmkAh" name="14.46">
    <mxGraphModel dx="880" dy="511" grid="1" gridSize="10" guides="1" tooltips="1" connect="1" arrows="1" fold="1" page="1" pageScale="1" pageWidth="827" pageHeight="1169" math="0" shadow="0">
      <root>
        <mxCell id="0" />
        <mxCell id="1" parent="0" />
        <mxCell id="gA1GO4FvcBnDXPwbLFYC-1" value="[precondition] event / [postcondition]" style="endArrow=open;html=1;rounded=0;align=center;verticalAlign=bottom;endFill=0;labelBackgroundColor=none;strokeColor=default;fontFamily=Helvetica;fontSize=11;fontColor=default;endSize=12;shape=connector;" edge="1" parent="1">
          <mxGeometry relative="1" as="geometry">
            <mxPoint x="20" y="30" as="sourcePoint" />
            <mxPoint x="260" y="30" as="targetPoint" />
          </mxGeometry>
        </mxCell>
        <mxCell id="gA1GO4FvcBnDXPwbLFYC-3" value="&lt;b&gt;Figure 14.46 ProtocolTransition notation&lt;/b&gt;" style="text;html=1;align=left;verticalAlign=middle;resizable=0;points=[];autosize=1;strokeColor=none;fillColor=none;fontSize=11;fontFamily=Helvetica;fontColor=default;" vertex="1" parent="1">
          <mxGeometry y="40" width="230" height="30" as="geometry" />
        </mxCell>
      </root>
    </mxGraphModel>
  </diagram>
</mxfile>
